<svg xmlns="http://www.w3.org/2000/svg" viewBox="0 0 24.57 20.32"><defs><style>.cls-1{fill:#af4f41;}</style></defs><title>Asset 5</title><g id="Layer_2" data-name="Layer 2"><g id="Buttons"><polygon class="cls-1" points="6.6 10.62 6.6 9.2 4.22 9.2 4.22 0 2.66 0 0.15 0.9 0.15 2.41 2.66 1.54 2.66 9.2 0 9.2 0 10.62 2.66 10.62 2.81 10.62 4.07 10.62 4.22 10.62 6.6 10.62"/><polygon class="cls-1" points="13.69 0.88 5.01 20.32 7.3 20.32 15.98 0.88 13.69 0.88"/><path class="cls-1" d="M23.58,9.8a3.56,3.56,0,0,0-2.8-1.1,3.61,3.61,0,0,0-2.18.56A2.28,2.28,0,0,0,17.77,11h-.25l-.19-2.07H15.27V20.32h2.28V13.91c0-2.11.9-3.17,2.69-3.17a2,2,0,0,1,1.51.56,2.26,2.26,0,0,1,.53,1.59v7.43h2.29V12.89A4.45,4.45,0,0,0,23.58,9.8Z"/></g></g></svg>