<svg xmlns="http://www.w3.org/2000/svg" viewBox="0 0 19.29 14.94"><defs><style>.cls-1{fill:#af4f41;}</style></defs><title>Asset 7</title><g id="Layer_2" data-name="Layer 2"><g id="Buttons"><path class="cls-1" d="M13.77,4.39a3.25,3.25,0,0,0-2,.51A2.08,2.08,0,0,0,11,6.46h-.22l-.17-1.87H8.77V14.94h2.07V9.12c0-1.92.81-2.87,2.44-2.87a1.86,1.86,0,0,1,1.37.5,2,2,0,0,1,.48,1.45v6.74H17.2V8.2a4.08,4.08,0,0,0-.89-2.81A3.23,3.23,0,0,0,13.77,4.39Z"/><polygon class="cls-1" points="19.29 0 7.38 0 5.48 0 3.07 13.28 2.9 13.28 1.9 9.4 0 9.4 1.64 14.94 4.43 14.94 7.03 1.75 19.29 1.75 19.29 0"/></g></g></svg>