<svg xmlns="http://www.w3.org/2000/svg" viewBox="0 0 15.57 14.06"><defs><style>.cls-1{fill:#af4f41;}</style></defs><title>Asset 6</title><g id="Layer_2" data-name="Layer 2"><g id="Buttons"><path class="cls-1" d="M5,3.52A3.22,3.22,0,0,0,3,4a2,2,0,0,0-.76,1.56H2L1.88,3.71H0V14.06H2.07V8.24c0-1.91.81-2.87,2.44-2.87a1.81,1.81,0,0,1,1.37.51,2,2,0,0,1,.49,1.44v6.74H8.44V7.32a4.05,4.05,0,0,0-.9-2.81A3.26,3.26,0,0,0,5,3.52Z"/><path class="cls-1" d="M12.94,4.86V4.74a6,6,0,0,0,1.79-1.35,2.24,2.24,0,0,0,.59-1.46,1.69,1.69,0,0,0-.69-1.4A3,3,0,0,0,12.8,0a6.77,6.77,0,0,0-1.35.12,3.87,3.87,0,0,0-1.16.45l.58,1.34a4.07,4.07,0,0,1,1.57-.35c.66,0,1,.31,1,.91a1.56,1.56,0,0,1-.73,1.15A8.35,8.35,0,0,1,10.54,4.7V6.23h5V4.86Z"/></g></g></svg>